<?xml version="1.0" standalone="no"?>
<!DOCTYPE svg PUBLIC "-//W3C//DTD SVG 20010904//EN"
 "http://www.w3.org/TR/2001/REC-SVG-20010904/DTD/svg10.dtd">
<svg version="1.0" xmlns="http://www.w3.org/2000/svg"
 width="512.000000pt" height="512.000000pt" viewBox="0 0 512.000000 512.000000"
 preserveAspectRatio="xMidYMid meet">

<g transform="translate(0.000000,512.000000) scale(0.100000,-0.100000)"
fill="#000000" stroke="none">
<path d="M2405 4844 c-240 -25 -381 -53 -566 -114 -821 -270 -1413 -978 -1545
-1850 -24 -156 -24 -471 0 -634 151 -1037 958 -1826 2001 -1956 130 -17 419
-14 560 5 932 123 1690 798 1921 1709 89 349 88 765 -1 1118 -53 212 -153 451
-262 628 -361 586 -955 977 -1634 1075 -104 15 -398 27 -474 19z m219 -795
c22 -26 26 -40 26 -95 l0 -64 36 0 c56 0 224 -37 321 -71 439 -154 774 -546
864 -1011 10 -54 19 -112 19 -128 l0 -30 69 0 c65 0 71 -2 95 -31 35 -41 34
-83 -3 -120 -26 -26 -36 -29 -94 -29 l-64 0 -7 -62 c-17 -153 -65 -307 -143
-459 -160 -311 -430 -542 -766 -654 -96 -32 -250 -65 -303 -65 -23 0 -24 -3
-24 -66 0 -59 -3 -68 -29 -95 -40 -39 -82 -39 -122 0 -26 26 -29 36 -29 93 l0
64 -88 12 c-306 41 -570 176 -790 406 -178 187 -292 406 -346 668 -9 43 -16
95 -16 118 l0 40 -64 0 c-55 0 -69 4 -95 26 -41 34 -44 92 -6 129 21 22 33 25
95 25 l70 0 0 34 c0 56 28 196 55 281 113 345 357 630 681 793 132 66 363 132
465 132 l39 0 0 70 c0 62 3 74 25 95 37 38 95 35 129 -6z"/>
<path d="M2423 3710 c-258 -33 -494 -149 -679 -334 -420 -419 -455 -1078 -83
-1540 149 -186 374 -332 606 -393 130 -34 353 -43 488 -19 472 81 838 440 937
916 28 136 21 373 -15 513 -52 195 -156 375 -302 522 -165 165 -362 272 -592
320 -93 19 -268 26 -360 15z m377 -199 c171 -45 325 -134 450 -260 276 -278
360 -683 217 -1039 -17 -43 -27 -56 -41 -54 -9 2 -25 -3 -34 -10 -12 -10 -14
-10 -8 0 6 10 -7 11 -61 6 -84 -7 -77 -7 -83 -5 -18 6 -218 3 -228 -3 -7 -4
-12 -3 -12 2 0 9 -36 9 -46 0 -3 -3 -19 -2 -35 2 -18 5 -29 5 -29 -1 0 -6 -7
-6 -17 -2 -10 5 -27 8 -38 7 -11 0 -36 -2 -56 -3 -27 -1 -51 -14 -108 -63
-101 -85 -121 -85 -225 1 -74 61 -78 63 -136 63 -33 1 -63 -1 -66 -4 -3 -3
-22 -2 -42 3 -20 4 -39 5 -42 1 -8 -11 -40 -11 -40 -1 0 6 -8 5 -19 -1 -24
-13 -41 -13 -21 0 10 6 -2 8 -38 7 -28 -1 -52 -6 -52 -10 0 -5 -5 -5 -11 -1
-6 3 -68 6 -137 5 -70 -1 -136 -2 -146 -2 -25 0 -29 8 -65 116 -79 240 -62
493 48 720 141 288 393 482 704 541 106 20 310 12 417 -15z"/>
<path d="M2247 2429 c20 -20 97 -23 129 -6 28 16 27 16 -55 17 -63 0 -82 -3
-74 -11z"/>
<path d="M2473 2398 c-10 -36 -9 -38 13 -38 14 0 25 7 28 20 3 11 9 29 12 40
4 16 1 20 -19 18 -19 -2 -26 -10 -34 -40z"/>
<path d="M2690 2425 c0 -9 9 -15 25 -15 16 0 25 6 25 15 0 9 -9 15 -25 15 -16
0 -25 -6 -25 -15z"/>
<path d="M2846 2425 c4 -8 19 -15 35 -15 21 0 27 4 23 15 -4 8 -19 15 -35 15
-21 0 -27 -4 -23 -15z"/>
</g>
</svg>
